<svg id="Layer_1" data-name="Layer 1" xmlns="http://www.w3.org/2000/svg" viewBox="0 0 100 100"><defs><style>.cls-1{fill:none;}.cls-2{fill:#fdba32;}</style></defs><g id="Group_29014" data-name="Group 29014"><g id="icn_notification" data-name="icn notification"><rect id="Rectangle_6874" data-name="Rectangle 6874" class="cls-1" x="2.5" y="2.5" width="95" height="95"/><path id="Icon_awesome-list-ul" data-name="Icon awesome-list-ul" class="cls-2" d="M18.34,15A7.72,7.72,0,0,0,11,23.08a7.72,7.72,0,0,0,7.31,8.07,7.72,7.72,0,0,0,7.31-8.07A7.72,7.72,0,0,0,18.34,15Zm0,26.92A7.74,7.74,0,0,0,11,50a7.74,7.74,0,0,0,7.31,8.08A7.74,7.74,0,0,0,25.65,50,7.74,7.74,0,0,0,18.34,41.92Zm0,26.93a8.12,8.12,0,0,0,0,16.15,8.12,8.12,0,0,0,0-16.15Zm68.19,2.69H37.82a2.57,2.57,0,0,0-2.43,2.69v5.39a2.57,2.57,0,0,0,2.43,2.69H86.54A2.57,2.57,0,0,0,89,79.62V74.23A2.57,2.57,0,0,0,86.53,71.54Zm0-53.85H37.82a2.57,2.57,0,0,0-2.43,2.69v5.39a2.56,2.56,0,0,0,2.43,2.69H86.54A2.56,2.56,0,0,0,89,25.77V20.38a2.58,2.58,0,0,0-2.44-2.69Zm0,26.92H37.82a2.58,2.58,0,0,0-2.43,2.7v5.38a2.56,2.56,0,0,0,2.43,2.69H86.54A2.56,2.56,0,0,0,89,52.69V47.31a2.56,2.56,0,0,0-2.44-2.69Z"/></g></g></svg>